<svg id="visual" viewBox="0 0 900 600" width="900" height="600" xmlns="http://www.w3.org/2000/svg" xmlns:xlink="http://www.w3.org/1999/xlink" version="1.1"><rect x="0" y="0" width="900" height="600" fill="#002233"></rect><path d="M0 283L21.5 278.8C43 274.7 86 266.3 128.8 269.3C171.7 272.3 214.3 286.7 257.2 297.5C300 308.3 343 315.7 385.8 307.8C428.7 300 471.3 277 514.2 273.5C557 270 600 286 642.8 315.7C685.7 345.3 728.3 388.7 771.2 399.7C814 410.7 857 389.3 878.5 378.7L900 368L900 601L878.5 601C857 601 814 601 771.2 601C728.3 601 685.7 601 642.8 601C600 601 557 601 514.2 601C471.3 601 428.7 601 385.8 601C343 601 300 601 257.2 601C214.3 601 171.7 601 128.8 601C86 601 43 601 21.5 601L0 601Z" fill="#1C3D5A" stroke-linecap="round" stroke-linejoin="miter"></path></svg>