<svg id="visual" viewBox="0 0 900 600" width="900" height="600" xmlns="http://www.w3.org/2000/svg" xmlns:xlink="http://www.w3.org/1999/xlink" version="1.1"><rect x="0" y="0" width="900" height="600" fill="#002233"></rect><path d="M0 315L21.5 319.2C43 323.3 86 331.7 128.8 328.7C171.7 325.7 214.3 311.3 257.2 300.5C300 289.7 343 282.3 385.8 290.2C428.7 298 471.3 321 514.2 324.5C557 328 600 312 642.8 282.3C685.7 252.7 728.3 209.3 771.2 198.3C814 187.3 857 208.7 878.5 219.3L900 230L900 0L878.5 0C857 0 814 0 771.2 0C728.3 0 685.7 0 642.8 0C600 0 557 0 514.2 0C471.3 0 428.7 0 385.8 0C343 0 300 0 257.2 0C214.3 0 171.7 0 128.8 0C86 0 43 0 21.5 0L0 0Z" fill="#1C3D5A" stroke-linecap="round" stroke-linejoin="miter"></path></svg>